if (_typeface_js && _typeface_js.loadFace) _typeface_js.loadFace({"glyphs":{"S":{"x_min":60.765625,"x_max":610.53125,"ha":668,"o":"m 342 937 q 570 880 462 937 l 570 814 q 342 879 456 879 q 244 859 288 879 q 173 801 199 839 q 147 710 147 762 q 174 621 147 657 q 242 563 201 585 q 342 518 283 541 q 477 459 423 489 q 571 377 532 429 q 610 245 610 325 q 570 108 610 166 q 464 19 531 50 q 317 -11 397 -11 q 186 6 248 -11 q 60 62 124 25 l 60 131 q 320 46 190 46 q 429 69 379 46 q 510 137 480 93 q 541 241 541 182 q 508 343 541 301 q 429 410 475 385 q 317 460 383 435 q 195 513 245 485 q 111 588 145 541 q 78 706 78 636 q 113 831 78 779 q 208 910 148 883 q 342 937 269 937 "},"F":{"x_min":121.53125,"x_max":641.390625,"ha":658,"o":"m 583 496 l 583 439 l 190 439 l 190 0 l 121 0 l 121 925 l 641 925 l 641 868 l 190 868 l 190 496 l 583 496 "},"T":{"x_min":40.5,"x_max":767.75,"ha":809,"o":"m 369 0 l 369 868 l 40 868 l 40 925 l 767 925 l 767 868 l 438 868 l 438 0 l 369 0 "},"N":{"x_min":120.5625,"x_max":882.515625,"ha":1005,"o":"m 188 0 l 120 0 l 120 925 l 197 925 l 815 100 l 815 925 l 882 925 l 882 0 l 805 0 l 188 825 l 188 0 "},"K":{"x_min":121.53125,"x_max":738.8125,"ha":757,"o":"m 190 925 l 190 0 l 121 0 l 121 925 l 190 925 m 202 491 l 594 925 l 680 925 l 286 493 l 738 0 l 649 0 l 202 491 "},"Y":{"x_min":37.609375,"x_max":802.46875,"ha":841,"o":"m 384 454 l 37 925 l 124 925 l 420 518 l 717 925 l 802 925 l 454 454 l 454 0 l 384 0 l 384 454 "},"E":{"x_min":121.53125,"x_max":641.390625,"ha":692,"o":"m 583 499 l 583 443 l 190 443 l 190 57 l 641 57 l 641 0 l 121 0 l 121 925 l 641 925 l 641 868 l 190 868 l 190 499 l 583 499 "},"V":{"x_min":77.15625,"x_max":868.046875,"ha":946,"o":"m 151 925 l 472 89 l 793 925 l 868 925 l 509 0 l 435 0 l 77 925 l 151 925 "},"Z":{"x_min":45.328125,"x_max":773.53125,"ha":820,"o":"m 773 0 l 45 0 l 45 57 l 684 868 l 45 868 l 45 925 l 773 925 l 773 868 l 135 57 l 773 57 l 773 0 "},"Q":{"x_min":40.5,"x_max":999.21875,"ha":1042,"o":"m 999 462 q 961 275 999 363 q 854 122 923 188 l 999 0 l 921 0 l 815 88 q 677 14 753 40 q 519 -11 601 -11 q 279 52 389 -11 q 104 224 168 115 q 40 462 40 332 q 104 701 40 593 q 279 873 168 810 q 519 937 389 937 q 760 873 650 937 q 935 701 870 810 q 999 462 999 593 m 519 51 q 649 72 587 51 q 762 133 710 93 l 508 347 l 587 347 l 801 166 q 893 300 860 223 q 925 462 925 377 q 871 669 925 574 q 723 819 816 763 q 519 874 630 874 q 315 819 408 874 q 168 669 222 763 q 113 462 113 574 q 168 256 113 351 q 315 106 222 162 q 519 51 408 51 "},"M":{"x_min":121.53125,"x_max":1000.1875,"ha":1124,"o":"m 582 326 l 538 326 l 189 825 l 189 0 l 121 0 l 121 925 l 201 925 l 561 410 l 919 925 l 1000 925 l 1000 0 l 930 0 l 930 826 l 582 326 "},"C":{"x_min":40.5,"x_max":868.046875,"ha":914,"o":"m 516 937 q 711 898 621 937 q 868 789 801 859 l 868 706 q 714 829 804 784 q 522 874 625 874 q 317 819 410 874 q 168 670 223 764 q 113 462 113 575 q 168 255 113 350 q 317 106 223 161 q 522 51 410 51 q 714 95 625 51 q 868 218 804 140 l 868 136 q 712 27 802 65 q 516 -11 622 -11 q 277 52 386 -11 q 104 224 167 115 q 40 462 40 332 q 104 701 40 593 q 277 873 167 810 q 516 937 386 937 "},"L":{"x_min":145.640625,"x_max":665.5,"ha":705,"o":"m 145 0 l 145 925 l 215 925 l 215 62 l 665 62 l 665 0 l 145 0 "},"A":{"x_min":77.15625,"x_max":868.046875,"ha":946,"o":"m 435 925 l 509 925 l 868 0 l 798 0 l 677 316 l 268 316 l 146 0 l 77 0 l 435 925 m 472 858 l 288 374 l 655 374 l 472 858 "},"J":{"x_min":3.859375,"x_max":477.4375,"ha":600,"o":"m 477 267 q 442 119 477 182 q 344 22 407 55 q 203 -11 282 -11 q 94 8 145 -11 q 3 65 42 28 l 3 147 q 89 80 40 105 q 190 54 138 54 q 300 80 250 54 q 379 155 350 106 q 407 272 407 205 l 407 925 l 477 925 l 477 267 "},"O":{"x_min":40.5,"x_max":999.21875,"ha":1042,"o":"m 519 937 q 760 873 650 937 q 935 701 870 810 q 999 462 999 593 q 935 224 999 332 q 760 52 870 115 q 519 -11 650 -11 q 279 52 389 -11 q 104 224 168 115 q 40 462 40 332 q 104 701 40 593 q 279 873 168 810 q 519 937 389 937 m 519 874 q 315 819 408 874 q 168 669 222 763 q 113 462 113 574 q 168 256 113 351 q 315 106 222 162 q 519 51 408 51 q 723 106 630 51 q 871 256 816 162 q 925 462 925 351 q 871 669 925 574 q 723 819 816 763 q 519 874 630 874 "},"W":{"x_min":80.046875,"x_max":1306.90625,"ha":1389,"o":"m 438 0 l 369 0 l 80 925 l 149 925 l 404 101 l 658 925 l 728 925 l 982 101 l 1237 925 l 1306 925 l 1017 0 l 948 0 l 693 824 l 438 0 "}," ":{"x_min":0,"x_max":0,"ha":526},"X":{"x_min":37.609375,"x_max":813.078125,"ha":852,"o":"m 424 430 l 122 0 l 37 0 l 381 482 l 66 925 l 153 925 l 426 536 l 699 925 l 784 925 l 467 484 l 813 0 l 726 0 l 424 430 "},"P":{"x_min":121.53125,"x_max":660.6875,"ha":726,"o":"m 401 925 q 530 891 471 925 q 625 798 590 857 q 660 670 660 739 q 625 542 660 600 q 530 448 590 483 q 401 413 471 413 l 190 413 l 190 0 l 121 0 l 121 925 l 401 925 m 395 471 q 493 498 448 471 q 564 570 538 525 q 591 670 591 616 q 564 768 591 723 q 493 841 538 814 q 395 868 448 868 l 190 868 l 190 471 l 395 471 "},"B":{"x_min":121.53125,"x_max":690.578125,"ha":737,"o":"m 387 925 q 512 895 456 925 q 600 813 568 865 q 632 698 632 761 q 596 576 632 630 q 498 495 559 521 q 597 447 553 482 q 665 362 640 412 q 690 254 690 312 q 654 125 690 184 q 556 33 619 67 q 419 0 494 0 l 121 0 l 121 925 l 387 925 m 383 516 q 474 539 433 516 q 539 603 515 563 q 563 692 563 644 q 539 781 563 740 q 474 847 515 822 q 383 871 433 871 l 190 871 l 190 516 l 383 516 m 415 54 q 518 81 471 54 q 593 156 566 109 q 621 259 621 203 q 593 361 621 315 q 518 435 566 407 q 415 462 471 462 l 190 462 l 190 54 l 415 54 "},"H":{"x_min":121.53125,"x_max":870.953125,"ha":994,"o":"m 192 440 l 192 0 l 121 0 l 121 925 l 192 925 l 192 503 l 799 503 l 799 925 l 870 925 l 870 0 l 799 0 l 799 440 l 192 440 "},"D":{"x_min":121.53125,"x_max":944.25,"ha":986,"o":"m 473 925 q 709 864 601 925 q 881 696 817 802 q 944 462 944 590 q 881 229 944 335 q 709 61 817 123 q 473 0 601 0 l 121 0 l 121 925 l 473 925 m 473 61 q 672 115 581 61 q 816 260 762 168 q 869 462 869 353 q 816 664 869 572 q 672 809 763 756 q 473 863 581 863 l 190 863 l 190 61 l 473 61 "},"R":{"x_min":135.984375,"x_max":733.015625,"ha":784,"o":"m 415 925 q 545 891 486 925 q 639 798 604 857 q 674 670 674 739 q 647 557 674 609 q 572 470 620 504 q 467 427 525 435 l 733 0 l 653 0 l 396 413 l 205 413 l 205 0 l 135 0 l 135 925 l 415 925 m 409 471 q 507 498 462 471 q 579 570 552 525 q 605 670 605 616 q 579 768 605 723 q 507 841 552 814 q 409 868 462 868 l 205 868 l 205 471 l 409 471 "},"I":{"x_min":124.421875,"x_max":193.859375,"ha":321,"o":"m 193 925 l 193 0 l 124 0 l 124 925 l 193 925 "},"G":{"x_min":40.5,"x_max":877.703125,"ha":973,"o":"m 524 937 q 717 898 624 937 q 877 790 811 860 l 877 710 q 721 830 813 787 q 528 874 630 874 q 318 819 413 874 q 168 670 223 764 q 113 462 113 575 q 168 254 113 349 q 318 103 223 159 q 526 48 412 48 q 686 82 610 48 q 818 177 762 117 l 818 422 l 519 422 l 519 477 l 877 477 l 877 139 q 715 28 808 68 q 520 -11 623 -11 q 279 51 389 -11 q 104 223 168 114 q 40 462 40 332 q 104 700 40 592 q 278 873 167 809 q 524 937 388 937 "},"U":{"x_min":96.453125,"x_max":837.1875,"ha":936,"o":"m 837 357 q 787 170 837 254 q 652 37 737 85 q 466 -11 568 -11 q 280 36 365 -11 q 146 169 195 84 q 96 357 96 254 l 96 925 l 168 925 l 168 357 q 208 202 168 272 q 316 92 247 132 q 466 52 384 52 q 617 92 548 52 q 725 203 685 133 q 765 357 765 272 l 765 925 l 837 925 l 837 357 "}}}
